<svg xmlns="http://www.w3.org/2000/svg" width="512" height="512" viewBox="0 0 480.26 480.26">
  <path d="M345.721 208.176H10.747C4.812 208.176 0 212.991 0 218.929v164.975c0 5.944 4.812 10.753 10.747 10.753h334.974c5.944 0 10.758-4.816 10.758-10.753v-164.97c0-5.937-4.822-10.758-10.758-10.758zM334.974 339.24a25.192 25.192 0 0 0-9.689-1.936c-13.895 0-25.166 11.271-25.166 25.172 0 3.829.879 7.435 2.406 10.68H53.305c1.518-3.245 2.397-6.859 2.397-10.68 0-13.9-11.262-25.172-25.157-25.172-3.196 0-6.229.617-9.041 1.706v-76.815c2.812 1.078 5.845 1.707 9.041 1.707 13.895 0 25.157-11.271 25.157-25.171 0-3.188-.611-6.229-1.697-9.037h247.818a25.013 25.013 0 0 0-1.705 9.037c0 13.888 11.271 25.171 25.166 25.171 3.424 0 6.696-.695 9.689-1.947v77.285zm-208.541-75.206h23.652c-11.806 8.755-19.5 22.752-19.5 38.566 0 14.469 6.421 27.409 16.534 36.214h-20.682v23.667h103.608v-23.667h-19.911c10.115-8.805 16.526-21.745 16.526-36.214 0-15.814-7.683-29.812-19.494-38.566h22.872v-23.661H126.433v23.661zm35.066 24.415c0-9.826 7.958-17.789 17.787-17.789 9.827 0 17.795 7.963 17.795 17.789 0 6.255-3.241 11.743-8.129 14.917 9.277 3.426 15.913 12.323 15.913 22.799h-48.639c0-9.901 5.913-18.388 14.392-22.196-5.443-3.031-9.119-8.843-9.119-15.52zm254.755-128.982v164.971a10.749 10.749 0 0 1-10.758 10.753h-39.123v-49.002c4.595-5.115 11.271-8.354 18.701-8.354 3.417 0 6.689.688 9.675 1.942v-77.292a25.044 25.044 0 0 1-9.675 1.937c-13.893 0-25.171-11.267-25.171-25.171 0-3.188.615-6.23 1.713-9.037H113.782a25.09 25.09 0 0 1 1.695 9.037c0 7.778-3.523 14.722-9.059 19.338H59.777v-39.127c0-5.945 4.812-10.753 10.758-10.753h334.961c5.94-.001 10.758 4.812 10.758 10.758zm-126.436 21.434v17.688H186.21v-17.688h103.608zM480.26 96.355V261.33c0 5.938-4.81 10.753-10.745 10.753h-39.132v-49c4.604-5.123 11.262-8.362 18.694-8.362 3.429 0 6.69.695 9.684 1.94V139.38a25.077 25.077 0 0 1-9.684 1.94c-13.899 0-25.162-11.269-25.162-25.171 0-3.188.612-6.233 1.696-9.04H177.794c1.081 2.807 1.709 5.853 1.709 9.04 0 7.776-3.537 14.719-9.072 19.337h-46.643v-39.13c0-5.942 4.814-10.752 10.76-10.752h334.967c5.935-.006 10.745 4.809 10.745 10.751zm-126.428 21.44v17.69H250.224v-17.69h103.608z" fill="#b1915f"/>
</svg>