<svg id="Layer_1" xmlns="http://www.w3.org/2000/svg" viewBox="0 0 199 40">
  
  <path class="st0" d="M47.9 17.5c.4-.3.6-.9.6-1.6 0-.7-.2-1.2-.5-1.6-.4-.4-.8-.5-1.3-.5h-4.8V18h4.7c.5 0 .9-.2 1.3-.5z"/>
  <path class="st0" d="M51.8 0H6.7C3 0 0 3 0 6.7v26.5C0 37 3 40 6.7 40h4v-5.2c-.2.1-.4.1-.7.1-1.1 0-2-.9-2-2.1V19.3c0-1.1.9-2.1 2.1-2.1h4.5l.8 1-1.4 8.2 2 1.8 2-1.8-1.4-8.2.8-1h4.5c.7 0 1.3.3 1.7.8l3.8 5.1 3-1.8c1-.6 2.3-.3 2.9.7.6 1 .3 2.3-.7 2.9L28 27.7c-.9.6-2.1.3-2.8-.6L21 21.8V40h30.8c3.7 0 6.7-3 6.7-6.7V6.7c0-3.7-3-6.7-6.7-6.7zM15.9 15.8c-2.6 0-4.8-3.3-4.8-6.3s2.1-4.6 4.8-4.6c2.6 0 4.7 1.6 4.7 4.6 0 3-2.1 6.3-4.7 6.3zm37.7 11.5c-.4.7-.9 1.2-1.5 1.6-.6.4-1.4.8-2.2 1-.8.2-1.7.3-2.7.3h-10V9.7h11.4c.7 0 1.4.2 1.9.5.6.3 1.1.7 1.5 1.2.4.5.7 1.1.9 1.7.2.6.3 1.3.3 1.9 0 1-.2 1.9-.7 2.8-.5.9-1.2 1.5-2.2 2 1.2.3 2.1 1 2.8 1.9.7.9 1 2 1 3.4 0 .8-.2 1.5-.5 2.2z"/>
  <path class="st0" d="M47.4 21.7h-5.5v4.5h5.3c.6 0 1.1-.2 1.5-.6.4-.4.6-.9.6-1.6 0-.6-.2-1.2-.5-1.6-.4-.4-.9-.7-1.4-.7zM71.9 30.4c-1.5 0-2.9-.3-4.2-.9-1.3-.6-2.3-1.4-3.2-2.4-.9-1-1.6-2.1-2.1-3.3-.5-1.3-.7-2.5-.7-3.9 0-1.3.3-2.6.8-3.9.5-1.3 1.2-2.4 2.1-3.3.9-1 2-1.7 3.3-2.3 1.3-.6 2.6-.9 4.1-.9 1.5 0 2.9.3 4.2.9s2.3 1.4 3.2 2.4c.9 1 1.6 2.1 2.1 3.4.5 1.3.7 2.5.7 3.8 0 1.3-.3 2.7-.8 3.9-.5 1.3-1.2 2.4-2.1 3.3-.9 1-2 1.7-3.2 2.3-1.4.6-2.7.9-4.2.9zM66.5 20c0 .8.1 1.6.3 2.3.2.7.6 1.4 1 2 .5.6 1 1 1.7 1.4.7.3 1.4.5 2.3.5.9 0 1.7-.2 2.4-.5.7-.4 1.2-.8 1.7-1.4.4-.6.8-1.3 1-2 .2-.7.3-1.5.3-2.3 0-.8-.1-1.6-.3-2.3-.2-.7-.6-1.4-1-2-.5-.6-1-1-1.7-1.4-.7-.3-1.4-.5-2.3-.5-.9 0-1.7.2-2.4.5-.7.4-1.2.8-1.7 1.4-.5.6-.8 1.2-1 2-.2.8-.3 1.5-.3 2.3zM101 30.2V17.9l-4.5 8.9H94l-4.5-8.9v12.3h-4.7V9.7H90l5.3 10.7 5.4-10.7h5.1v20.5H101zM122 15.7c-.1-.1-.3-.2-.6-.4s-.8-.4-1.3-.7c-.5-.2-1.1-.4-1.7-.6-.6-.2-1.2-.3-1.8-.3-1.7 0-2.5.6-2.5 1.7 0 .3.1.6.3.9.2.2.5.4.8.6.4.2.8.4 1.3.5.5.2 1.2.3 1.9.5 1 .3 1.9.6 2.7.9.8.3 1.5.7 2 1.2s1 1 1.3 1.7c.3.7.4 1.5.4 2.4 0 1.2-.2 2.1-.7 2.9-.4.8-1 1.4-1.7 1.9s-1.5.8-2.5 1.1-1.9.3-2.9.3c-.8 0-1.5-.1-2.3-.2-.8-.1-1.6-.3-2.3-.5-.8-.2-1.5-.5-2.2-.8-.7-.3-1.4-.7-2-1.1l2.1-4.1c.1.1.3.3.8.5.4.3 1 .5 1.6.8.6.3 1.3.5 2.1.7.8.2 1.6.3 2.3.3 1.7 0 2.5-.5 2.5-1.5 0-.4-.1-.7-.4-1-.3-.3-.6-.5-1-.7-.4-.2-1-.4-1.6-.6-.6-.2-1.3-.4-2-.6-.9-.3-1.8-.6-2.5-.9-.7-.3-1.3-.7-1.7-1.2s-.8-1-1-1.5c-.2-.6-.3-1.3-.3-2 0-1.1.2-2 .6-2.9.4-.8 1-1.5 1.6-2.1.7-.6 1.5-1 2.4-1.3.9-.3 1.9-.4 2.9-.4.7 0 1.4.1 2.1.2.7.1 1.4.3 2 .5.6.2 1.2.5 1.8.7.5.3 1.1.5 1.5.8l-2 4.3zM145.2 9.7v20.5h-4.7v-8.4h-8.2v8.4h-4.7V9.7h4.7v8h8.2v-8h4.7zM158.1 30.4c-1.5 0-2.9-.3-4.2-.9-1.3-.6-2.3-1.4-3.2-2.4s-1.6-2.1-2.1-3.3c-.5-1.3-.7-2.5-.7-3.9 0-1.3.3-2.6.8-3.9.5-1.3 1.2-2.4 2.1-3.3.9-1 2-1.7 3.3-2.3 1.3-.6 2.6-.9 4.1-.9 1.5 0 2.9.3 4.2.9 1.3.6 2.3 1.4 3.2 2.4.9 1 1.6 2.1 2.1 3.4.5 1.3.7 2.5.7 3.8 0 1.3-.3 2.7-.8 3.9-.5 1.3-1.2 2.4-2.1 3.3-.9 1-2 1.7-3.2 2.3-1.3.6-2.7.9-4.2.9zM152.8 20c0 .8.1 1.6.3 2.3.2.7.6 1.4 1 2 .5.6 1 1 1.7 1.4.7.3 1.4.5 2.3.5.9 0 1.7-.2 2.4-.5.7-.4 1.2-.8 1.7-1.4.4-.6.8-1.3 1-2 .2-.7.3-1.5.3-2.3 0-.8-.1-1.6-.3-2.3-.2-.7-.6-1.4-1-2-.5-.6-1-1-1.7-1.4-.7-.3-1.4-.5-2.3-.5-.9 0-1.7.2-2.4.5-.7.4-1.2.8-1.7 1.4-.5.6-.8 1.2-1 2-.2.8-.3 1.5-.3 2.3zM177.2 9.7h4.4l2.1 6.6 2.1-6.6h4.4l-3.4 9.5 2.1 5.5L194 9.6h5.2L191 30.1h-4l-3.3-8-3.2 8h-4l-8.2-20.5h5.1l5.2 15.1 2-5.5-3.4-9.5z"/>
</svg>