<?xml version="1.0" encoding="iso-8859-1"?>
<!-- Generator: Adobe Illustrator 16.0.0, SVG Export Plug-In . SVG Version: 6.00 Build 0)  -->
<!DOCTYPE svg PUBLIC "-//W3C//DTD SVG 1.1//EN" "http://www.w3.org/Graphics/SVG/1.1/DTD/svg11.dtd">
<svg xmlns="http://www.w3.org/2000/svg" xmlns:xlink="http://www.w3.org/1999/xlink" version="1.1" id="Capa_1" x="0px" y="0px" width="512px" height="512px" viewBox="0 0 480.26 480.26" style="enable-background:new 0 0 480.26 480.26;" xml:space="preserve">
<g>
	<g id="Layer_8_73_">
		<path d="M345.721,208.176H10.747C4.812,208.176,0,212.991,0,218.929v164.975c0,5.944,4.812,10.753,10.747,10.753h334.974    c5.944,0,10.758-4.816,10.758-10.753v-164.97C356.479,212.997,351.657,208.176,345.721,208.176z M334.974,339.24    c-2.988-1.242-6.261-1.936-9.689-1.936c-13.895,0-25.166,11.271-25.166,25.172c0,3.829,0.879,7.435,2.406,10.68H53.305    c1.518-3.245,2.397-6.859,2.397-10.68c0-13.9-11.262-25.172-25.157-25.172c-3.196,0-6.229,0.617-9.041,1.706v-76.815    c2.812,1.078,5.845,1.707,9.041,1.707c13.895,0,25.157-11.271,25.157-25.171c0-3.188-0.611-6.229-1.697-9.037h247.818    c-1.083,2.802-1.705,5.845-1.705,9.037c0,13.888,11.271,25.171,25.166,25.171c3.424,0,6.696-0.695,9.689-1.947V339.24z     M126.433,264.034h23.652c-11.806,8.755-19.5,22.752-19.5,38.566c0,14.469,6.421,27.409,16.534,36.214h-20.682v23.667h103.608    v-23.667h-19.911c10.115-8.805,16.526-21.745,16.526-36.214c0-15.814-7.683-29.812-19.494-38.566h22.872v-23.661H126.433V264.034z     M161.499,288.449c0-9.826,7.958-17.789,17.787-17.789c9.827,0,17.795,7.963,17.795,17.789c0,6.255-3.241,11.743-8.129,14.917    c9.277,3.426,15.913,12.323,15.913,22.799h-48.639c0-9.901,5.913-18.388,14.392-22.196    C165.175,300.938,161.499,295.126,161.499,288.449z M416.254,159.467v164.971c0,5.938-4.805,10.753-10.758,10.753h-39.123v-49.002    c4.595-5.115,11.271-8.354,18.701-8.354c3.417,0,6.689,0.688,9.675,1.942v-77.292c-2.971,1.242-6.243,1.937-9.675,1.937    c-13.893,0-25.171-11.267-25.171-25.171c0-3.188,0.615-6.23,1.713-9.037H113.782c1.081,2.807,1.695,5.85,1.695,9.037    c0,7.778-3.523,14.722-9.059,19.338H59.777v-39.127c0-5.945,4.812-10.753,10.758-10.753h334.961    C411.436,148.708,416.254,153.521,416.254,159.467z M289.818,180.901v17.688H186.21v-17.688H289.818z M480.26,96.355V261.33    c0,5.938-4.81,10.753-10.745,10.753h-39.132v-49c4.604-5.123,11.262-8.362,18.694-8.362c3.429,0,6.69,0.695,9.684,1.94v-77.281    c-2.987,1.245-6.247,1.94-9.684,1.94c-13.899,0-25.162-11.269-25.162-25.171c0-3.188,0.612-6.233,1.696-9.04H177.794    c1.081,2.807,1.709,5.853,1.709,9.04c0,7.776-3.537,14.719-9.072,19.337h-46.643v-39.13c0-5.942,4.814-10.752,10.76-10.752    h334.967C475.45,85.598,480.26,90.413,480.26,96.355z M353.832,117.795v17.69H250.224v-17.69H353.832z" fill="#006DF0"/>
	</g>
</g>
<g>
</g>
<g>
</g>
<g>
</g>
<g>
</g>
<g>
</g>
<g>
</g>
<g>
</g>
<g>
</g>
<g>
</g>
<g>
</g>
<g>
</g>
<g>
</g>
<g>
</g>
<g>
</g>
<g>
</g>
</svg>
